<svg xmlns="http://www.w3.org/2000/svg" width="720" height="420" viewBox="0 0 720 420" role="img" aria-labelledby="title desc">
  <title id="title">DailyHub service coverage map</title>
  <desc id="desc">A stylized city map showing verified service coverage for the DailyHub MVP.</desc>
  <rect width="720" height="420" fill="#f8faf5"/>
  <g fill="none" stroke="#d9e1d8" stroke-width="18" stroke-linecap="round">
    <path d="M66 90 H654"/>
    <path d="M74 205 H645"/>
    <path d="M96 330 H624"/>
    <path d="M156 36 V382"/>
    <path d="M340 36 V382"/>
    <path d="M526 36 V382"/>
  </g>
  <g fill="none" stroke="#b8caba" stroke-width="4" stroke-dasharray="10 10">
    <path d="M64 146 C188 118 252 236 370 204 S548 96 650 158"/>
    <path d="M88 270 C210 226 292 292 400 270 S558 232 632 286"/>
  </g>
  <g>
    <circle cx="156" cy="205" r="52" fill="#e8f4ec" stroke="#2f7d57" stroke-width="4"/>
    <text x="156" y="198" text-anchor="middle" font-family="Arial, sans-serif" font-size="15" font-weight="700" fill="#176340">Kathmandu</text>
    <text x="156" y="220" text-anchor="middle" font-family="Arial, sans-serif" font-size="13" fill="#5d6a61">3 verified</text>
  </g>
  <g>
    <circle cx="340" cy="132" r="44" fill="#e8f0f6" stroke="#286f9e" stroke-width="4"/>
    <text x="340" y="126" text-anchor="middle" font-family="Arial, sans-serif" font-size="15" font-weight="700" fill="#1f5f87">Lalitpur</text>
    <text x="340" y="148" text-anchor="middle" font-family="Arial, sans-serif" font-size="13" fill="#5d6a61">1 verified</text>
  </g>
  <g>
    <circle cx="526" cy="266" r="42" fill="#f7efe2" stroke="#b76d13" stroke-width="4"/>
    <text x="526" y="260" text-anchor="middle" font-family="Arial, sans-serif" font-size="15" font-weight="700" fill="#8d530e">Bhaktapur</text>
    <text x="526" y="282" text-anchor="middle" font-family="Arial, sans-serif" font-size="13" fill="#5d6a61">review</text>
  </g>
  <g fill="#2f7d57">
    <path d="M214 150 l16 -28 l16 28 z"/>
    <path d="M442 214 l16 -28 l16 28 z"/>
    <path d="M588 126 l16 -28 l16 28 z"/>
  </g>
  <g fill="#286f9e">
    <rect x="220" y="286" width="30" height="30" rx="7"/>
    <rect x="424" y="78" width="30" height="30" rx="7"/>
  </g>
  <g fill="#b94d5d">
    <circle cx="612" cy="324" r="15"/>
  </g>
  <g font-family="Arial, sans-serif" font-size="14" fill="#17201a">
    <text x="42" y="390">Coverage focus: verified service supply before complex payments or delivery.</text>
  </g>
</svg>
